<mxfile host="Electron" modified="2024-04-03T05:23:10.904Z" agent="Mozilla/5.0 (Macintosh; Intel Mac OS X 10_15_7) AppleWebKit/537.36 (KHTML, like Gecko) draw.io/24.0.4 Chrome/120.0.6099.109 Electron/28.1.0 Safari/537.36" etag="aVR3Bg9tkz9zf4QQSgAp" version="24.0.4" type="device">
  <diagram id="C5RBs43oDa-KdzZeNtuy" name="Page-1">
    <mxGraphModel dx="954" dy="611" grid="1" gridSize="10" guides="1" tooltips="1" connect="1" arrows="1" fold="1" page="1" pageScale="1" pageWidth="827" pageHeight="1169" background="#ffffff" math="0" shadow="0">
      <root>
        <mxCell id="WIyWlLk6GJQsqaUBKTNV-0" />
        <mxCell id="WIyWlLk6GJQsqaUBKTNV-1" parent="WIyWlLk6GJQsqaUBKTNV-0" />
        <mxCell id="WIyWlLk6GJQsqaUBKTNV-4" value="Yes" style="rounded=0;html=1;jettySize=auto;orthogonalLoop=1;fontSize=11;endArrow=block;endFill=0;endSize=8;strokeWidth=1;shadow=0;labelBackgroundColor=none;edgeStyle=orthogonalEdgeStyle;" parent="WIyWlLk6GJQsqaUBKTNV-1" source="WIyWlLk6GJQsqaUBKTNV-6" target="WIyWlLk6GJQsqaUBKTNV-10" edge="1">
          <mxGeometry y="20" relative="1" as="geometry">
            <mxPoint as="offset" />
          </mxGeometry>
        </mxCell>
        <mxCell id="WIyWlLk6GJQsqaUBKTNV-6" value="Glue Job" style="rhombus;whiteSpace=wrap;html=1;shadow=0;fontFamily=Helvetica;fontSize=12;align=center;strokeWidth=1;spacing=6;spacingTop=-4;fillColor=#bac8d3;strokeColor=#23445d;fontColor=#0f0f0f;" parent="WIyWlLk6GJQsqaUBKTNV-1" vertex="1">
          <mxGeometry x="460" y="230" width="100" height="80" as="geometry" />
        </mxCell>
        <mxCell id="WIyWlLk6GJQsqaUBKTNV-10" value="Glue Job" style="rhombus;whiteSpace=wrap;html=1;shadow=0;fontFamily=Helvetica;fontSize=12;align=center;strokeWidth=1;spacing=6;spacingTop=-4;fillColor=#bac8d3;strokeColor=#23445d;fontColor=#0f0f0f;" parent="WIyWlLk6GJQsqaUBKTNV-1" vertex="1">
          <mxGeometry x="460" y="410" width="100" height="80" as="geometry" />
        </mxCell>
        <mxCell id="e7RHfga2JYqgBT9l5ku8-1" value="Create AWS Ressources" style="rhombus;whiteSpace=wrap;html=1;shadow=0;fontFamily=Helvetica;fontSize=12;align=center;strokeWidth=1;spacing=6;spacingTop=-4;fillColor=#bac8d3;strokeColor=#23445d;fontColor=#0f0f0f;" vertex="1" parent="WIyWlLk6GJQsqaUBKTNV-1">
          <mxGeometry x="100" y="110" width="100" height="80" as="geometry" />
        </mxCell>
        <mxCell id="e7RHfga2JYqgBT9l5ku8-2" value="Landing Zone" style="sketch=0;outlineConnect=0;fontColor=#232F3E;gradientColor=none;fillColor=#7AA116;strokeColor=none;dashed=0;verticalLabelPosition=bottom;verticalAlign=top;align=center;html=1;fontSize=12;fontStyle=0;aspect=fixed;pointerEvents=1;shape=mxgraph.aws4.bucket_with_objects;" vertex="1" parent="WIyWlLk6GJQsqaUBKTNV-1">
          <mxGeometry x="282.5" y="142" width="75" height="78" as="geometry" />
        </mxCell>
        <mxCell id="e7RHfga2JYqgBT9l5ku8-3" value="Trusted Zone" style="sketch=0;outlineConnect=0;fontColor=#232F3E;gradientColor=none;fillColor=#7AA116;strokeColor=none;dashed=0;verticalLabelPosition=bottom;verticalAlign=top;align=center;html=1;fontSize=12;fontStyle=0;aspect=fixed;pointerEvents=1;shape=mxgraph.aws4.bucket_with_objects;" vertex="1" parent="WIyWlLk6GJQsqaUBKTNV-1">
          <mxGeometry x="282.5" y="280" width="75" height="78" as="geometry" />
        </mxCell>
        <mxCell id="e7RHfga2JYqgBT9l5ku8-4" value="Curated Zone" style="sketch=0;outlineConnect=0;fontColor=#232F3E;gradientColor=none;fillColor=#7AA116;strokeColor=none;dashed=0;verticalLabelPosition=bottom;verticalAlign=top;align=center;html=1;fontSize=12;fontStyle=0;aspect=fixed;pointerEvents=1;shape=mxgraph.aws4.bucket_with_objects;" vertex="1" parent="WIyWlLk6GJQsqaUBKTNV-1">
          <mxGeometry x="282.5" y="440" width="75" height="78" as="geometry" />
        </mxCell>
        <mxCell id="e7RHfga2JYqgBT9l5ku8-6" value="" style="endArrow=classic;html=1;rounded=0;fontColor=#171616;strokeColor=#1a1919;entryX=0;entryY=0.5;entryDx=0;entryDy=0;" edge="1" parent="WIyWlLk6GJQsqaUBKTNV-1" target="WIyWlLk6GJQsqaUBKTNV-6">
          <mxGeometry width="50" height="50" relative="1" as="geometry">
            <mxPoint x="357.5017274384684" y="198.5619144317037" as="sourcePoint" />
            <mxPoint x="478.47473029045636" y="255.22821576763488" as="targetPoint" />
          </mxGeometry>
        </mxCell>
        <mxCell id="e7RHfga2JYqgBT9l5ku8-7" value="" style="endArrow=classic;html=1;rounded=0;fontColor=#171616;strokeColor=#1a1919;entryX=0;entryY=0.5;entryDx=0;entryDy=0;" edge="1" parent="WIyWlLk6GJQsqaUBKTNV-1" source="e7RHfga2JYqgBT9l5ku8-3" target="WIyWlLk6GJQsqaUBKTNV-10">
          <mxGeometry width="50" height="50" relative="1" as="geometry">
            <mxPoint x="370" y="350" as="sourcePoint" />
            <mxPoint x="478.473002851988" y="426.66630133593117" as="targetPoint" />
          </mxGeometry>
        </mxCell>
        <mxCell id="e7RHfga2JYqgBT9l5ku8-8" value="" style="endArrow=classic;html=1;rounded=0;fontColor=#171616;strokeColor=#1a1919;" edge="1" parent="WIyWlLk6GJQsqaUBKTNV-1" target="e7RHfga2JYqgBT9l5ku8-3">
          <mxGeometry width="50" height="50" relative="1" as="geometry">
            <mxPoint x="460" y="270" as="sourcePoint" />
            <mxPoint x="370.00300285198796" y="329.99630133593115" as="targetPoint" />
          </mxGeometry>
        </mxCell>
        <mxCell id="e7RHfga2JYqgBT9l5ku8-10" value="" style="endArrow=classic;html=1;rounded=0;fontColor=#171616;strokeColor=#1a1919;exitX=0;exitY=0.5;exitDx=0;exitDy=0;" edge="1" parent="WIyWlLk6GJQsqaUBKTNV-1" source="WIyWlLk6GJQsqaUBKTNV-10">
          <mxGeometry width="50" height="50" relative="1" as="geometry">
            <mxPoint x="469" y="470" as="sourcePoint" />
            <mxPoint x="359.00300285198796" y="506.66630133593117" as="targetPoint" />
          </mxGeometry>
        </mxCell>
        <mxCell id="e7RHfga2JYqgBT9l5ku8-11" value="Delete AWS Ressources" style="rhombus;whiteSpace=wrap;html=1;shadow=0;fontFamily=Helvetica;fontSize=12;align=center;strokeWidth=1;spacing=6;spacingTop=-4;fillColor=#bac8d3;strokeColor=#23445d;fontColor=#0f0f0f;" vertex="1" parent="WIyWlLk6GJQsqaUBKTNV-1">
          <mxGeometry x="100" y="470" width="100" height="80" as="geometry" />
        </mxCell>
        <mxCell id="e7RHfga2JYqgBT9l5ku8-12" value="" style="endArrow=classic;html=1;rounded=0;fontColor=#171616;strokeColor=#1a1919;exitX=1;exitY=0.5;exitDx=0;exitDy=0;" edge="1" parent="WIyWlLk6GJQsqaUBKTNV-1" source="e7RHfga2JYqgBT9l5ku8-1" target="e7RHfga2JYqgBT9l5ku8-2">
          <mxGeometry width="50" height="50" relative="1" as="geometry">
            <mxPoint x="190.00172743846838" y="120.00191443170371" as="sourcePoint" />
            <mxPoint x="250" y="150" as="targetPoint" />
          </mxGeometry>
        </mxCell>
        <mxCell id="e7RHfga2JYqgBT9l5ku8-13" value="" style="endArrow=classic;html=1;rounded=0;fontColor=#171616;strokeColor=#1a1919;entryX=1;entryY=0.5;entryDx=0;entryDy=0;" edge="1" parent="WIyWlLk6GJQsqaUBKTNV-1" source="e7RHfga2JYqgBT9l5ku8-4" target="e7RHfga2JYqgBT9l5ku8-11">
          <mxGeometry width="50" height="50" relative="1" as="geometry">
            <mxPoint x="357.5" y="566" as="sourcePoint" />
            <mxPoint x="247.50300285198796" y="602.6663013359312" as="targetPoint" />
          </mxGeometry>
        </mxCell>
      </root>
    </mxGraphModel>
  </diagram>
</mxfile>
